<svg id="레이어_1" data-name="레이어 1" xmlns="http://www.w3.org/2000/svg" viewBox="0 0 242.46 106.49"><defs><style>.cls-1{stroke:#000;stroke-miterlimit:10;}.cls-2{fill:#08a05c;}</style></defs><path d="M25.63,53.86c-5.39-1.79-6.87-3-6.87-5.39s1.6-3.81,4.39-3.81c4.9,0,5,4,5.08,5.27v.42h9.45v-.44c0-11.33-11-12.21-14.3-12.21-6.56,0-14.22,3-14.22,11.32,0,6.09,3.26,9.21,12.9,12.38,5.19,1.72,6.85,3.23,6.85,6.19S27,72,23.62,72c-5.36,0-5.95-4.42-6-5.78l0-.41H8v.44c.11,8,5.82,12.7,15.26,12.7,9.78,0,15.39-4.45,15.39-12.22C38.63,59.51,34.06,56.64,25.63,53.86Z" transform="translate(-7.97 0)"/><path d="M61.49,37.7c-4.41,0-7.67,1.29-9.72,3.84v-18H42V78.23h9.82V54.12c0-6.21,1.76-8.75,6.09-8.75s5.3,2.46,5.3,6.43V78.23H73v-28C73,42,69,37.7,61.49,37.7Z" transform="translate(-7.97 0)"/><path d="M176.82,77.6c-.08-.15-10.73-21.68-12-24.22l2.52-3.22c2.94-3.75,5.72-7.3,8.56-11l.53-.69h-11l-.13.18c-1.36,2-2.91,4.14-4.47,6.36-2.41,3.4-4.88,6.9-6.75,9.67V23.5h-9.8V78.23h9.8V65.5c.65-.77,1.55-1.91,2.42-3l1.63-2.06c.63,1.45,2.44,5.56,7.71,17.54l.11.26h11.12Z" transform="translate(-7.97 0)"/><path class="cls-1" d="M95.9,39.58a19.83,19.83,0,1,0,19.82,19.83A19.83,19.83,0,0,0,95.9,39.58Zm0,31.33a11.5,11.5,0,1,1,11.5-11.5A11.5,11.5,0,0,1,95.9,70.91Z" transform="translate(-7.97 0)"/><path class="cls-1" d="M136.57,66.1a11.5,11.5,0,1,1-.07-13.48L140.88,45A19.83,19.83,0,1,0,141,73.71Z" transform="translate(-7.97 0)"/><polygon class="cls-2" points="208.56 58.47 208.59 58.43 208.59 58.43 210.07 56.2 229.97 25.81 237.37 26.76 237.81 0 200.83 22.08 209.97 23.25 196.83 41.86 181.84 20.63 151.21 6.8 185.01 58.35 183.39 60.62 151.21 106.49 185.56 93.55 194.03 80.31 196.74 76.24 196.83 76.37 208.1 93.55 242.46 106.49 208.56 58.47"/></svg>