<?xml version="1.0" encoding="iso-8859-1"?>
<!-- Generator: Adobe Illustrator 19.0.0, SVG Export Plug-In . SVG Version: 6.00 Build 0)  -->
<svg version="1.1" id="Capa_1" xmlns="http://www.w3.org/2000/svg" xmlns:xlink="http://www.w3.org/1999/xlink" x="0px" y="0px"
	 viewBox="0 0 512 512" style="enable-background:new 0 0 512 512;" xml:space="preserve">
<g>
	<g>
		<path d="M511.998,162.022c0-0.124-0.017-0.246-0.022-0.37c-0.003-0.033-0.003-0.068-0.007-0.101
			c-0.082-1.589-0.523-3.163-1.362-4.58L420.646,4.908C418.846,1.866,415.574,0,412.039,0H99.961c-3.535,0-6.807,1.866-8.606,4.908
			L1.394,156.973c0.003,0.002,0.005,0.003,0.008,0.005C0.517,158.469,0,160.204,0,162.064V502c0,5.522,4.477,10,10,10h492
			c5.523,0,10-4.478,10-10V162.064C512,162.05,511.998,162.037,511.998,162.022z M406.336,20l78.129,132.064H336.417L313.55,20
			H406.336z M293.252,20l22.867,132.064H195.88L218.748,20H293.252z M318,172.064v95.796l-6.929-6.929
			c-3.905-3.904-10.237-3.904-14.143,0L280,277.86l-16.929-16.929c-1.953-1.952-4.512-2.929-7.071-2.929s-5.119,0.977-7.071,2.929
			L232,277.86l-16.929-16.929c-3.905-3.904-10.237-3.904-14.143,0L194,267.86v-95.796H318z M105.664,20h92.786l-22.867,132.064
			H27.535L105.664,20z M492,492L492,492H20V212.25h63.766c5.523,0,10-4.477,10-10s-4.477-10-10-10H20v-20.186h154v119.938
			c0,4.045,2.437,7.691,6.173,9.239c3.737,1.546,8.039,0.692,10.898-2.168L208,282.146l16.929,16.929
			c3.905,3.904,10.237,3.904,14.143,0L256,282.146l16.929,16.929c3.905,3.904,10.237,3.904,14.143,0L304,282.146l16.929,16.929
			c1.914,1.913,4.471,2.929,7.074,2.929c1.288,0,2.587-0.249,3.824-0.761c3.737-1.548,6.173-5.194,6.173-9.239v-119.94h154V492z"/>
	</g>
</g>
<g>
	<g>
		<path d="M126.54,440.93c-1.86-1.861-4.44-2.93-7.07-2.93c-2.63,0-5.21,1.069-7.07,2.93c-1.86,1.861-2.93,4.44-2.93,7.07
			s1.07,5.21,2.93,7.069c1.86,1.86,4.44,2.931,7.07,2.931c2.63,0,5.21-1.07,7.07-2.931c1.87-1.859,2.93-4.439,2.93-7.069
			S128.41,442.79,126.54,440.93z"/>
	</g>
</g>
<g>
	<g>
		<path d="M227.634,438h-71.959c-5.523,0-10,4.478-10,10c0,5.522,4.477,10,10,10h71.959c5.523,0,10-4.478,10-10
			C237.634,442.478,233.157,438,227.634,438z"/>
	</g>
</g>
<g>
	<g>
		<path d="M227.58,386H63.987c-5.523,0-10,4.478-10,10c0,5.522,4.477,10,10,10H227.58c5.523,0,10-4.478,10-10
			C237.58,390.478,233.103,386,227.58,386z"/>
	</g>
</g>
<g>
	<g>
		<path d="M227.647,334H64.055c-5.523,0-10,4.478-10,10c0,5.522,4.477,10,10,10h163.592c5.523,0,10-4.478,10-10
			C237.647,338.478,233.17,334,227.647,334z"/>
	</g>
</g>
<g>
	<g>
		<path d="M338,384v-40c0-5.522-4.477-10-10-10h-48c-5.523,0-10,4.478-10,10v40c0,15.269,10.118,28.217,24,32.497V438h-11
			c-5.523,0-10,4.478-10,10c0,5.522,4.477,10,10,10h42c5.523,0,10-4.478,10-10c0-5.522-4.477-10-10-10h-11v-21.503
			C327.882,412.216,338,399.269,338,384z M304,398c-7.72,0-14-6.28-14-14v-30h28v30C318,391.72,311.72,398,304,398z"/>
	</g>
</g>
<g>
	<g>
		<path d="M418,332c-31.981,0-58,26.019-58,58v3.4c0,4.077,2.475,7.746,6.254,9.272c3.781,1.53,8.108,0.606,10.94-2.325
			c4.003-4.146,9.364-6.43,15.093-6.43c6.056,0,11.75,2.604,15.713,7.074V434c0,2.206-1.794,4-4,4s-4-1.794-4-4
			c0-5.522-4.477-10-10-10s-10,4.478-10,10c0,13.233,10.766,24,24,24s24-10.767,24-24v-33.009c3.963-4.47,9.657-7.074,15.713-7.074
			c5.729,0,11.089,2.283,15.093,6.43c2.832,2.933,7.158,3.855,10.94,2.325c3.779-1.526,6.254-5.195,6.254-9.271V390
			C476,358.019,449.981,332,418,332z M443.714,373.917c-9.486,0-18.52,3.266-25.713,9.061c-7.194-5.795-16.227-9.061-25.713-9.061
			c-3.13,0-6.202,0.348-9.175,1.024C388.954,361.457,402.394,352,418,352c15.606,0,29.046,9.457,34.889,22.941
			C449.915,374.264,446.844,373.917,443.714,373.917z"/>
	</g>
</g>
<g>
	<g>
		<path d="M127.04,195.18c-1.86-1.86-4.44-2.93-7.07-2.93c-2.64,0-5.21,1.07-7.07,2.93c-1.87,1.86-2.93,4.44-2.93,7.07
			s1.06,5.21,2.93,7.07c1.86,1.86,4.43,2.93,7.07,2.93c2.63,0,5.21-1.07,7.07-2.93c1.86-1.86,2.93-4.44,2.93-7.07
			S128.9,197.04,127.04,195.18z"/>
	</g>
</g>
<g>
</g>
<g>
</g>
<g>
</g>
<g>
</g>
<g>
</g>
<g>
</g>
<g>
</g>
<g>
</g>
<g>
</g>
<g>
</g>
<g>
</g>
<g>
</g>
<g>
</g>
<g>
</g>
<g>
</g>
</svg>
