<?xml version="1.0" encoding="iso-8859-1"?>
<!-- Generator: Adobe Illustrator 19.0.0, SVG Export Plug-In . SVG Version: 6.00 Build 0)  -->
<svg version="1.1" id="Capa_1" xmlns="http://www.w3.org/2000/svg" xmlns:xlink="http://www.w3.org/1999/xlink" x="0px" y="0px"
	 viewBox="0 0 512.001 512.001" style="enable-background:new 0 0 512.001 512.001;" xml:space="preserve">
<g>
	<g>
		<path d="M505.765,254.742c10.24-16.641,7.67-37.84-6.25-51.553l-19.96-19.663c-4.529-4.461-6.868-10.657-6.416-16.998l2-28.083
			c1.395-19.581-10.759-37.215-29.553-42.88l-26.431-7.968c-6.127-1.848-11.1-6.274-13.644-12.145l-11.064-25.522
			c-7.734-17.844-27.204-28.076-46.283-24.331l-26.817,5.263c-6.312,1.24-12.803-0.368-17.808-4.409L282.19,9.218
			c-15.176-12.253-37.206-12.252-52.382,0l-21.348,17.236c-5.006,4.04-11.498,5.646-17.808,4.409l-26.82-5.264
			c-19.079-3.743-38.546,6.486-46.282,24.327l-11.069,25.529c-2.544,5.87-7.518,10.295-13.643,12.143l-26.426,7.967
			c-18.794,5.666-30.947,23.298-29.552,42.879l2,28.085c0.452,6.341-1.888,12.537-6.416,16.998l-19.96,19.664
			c-13.918,13.712-16.489,34.911-6.249,51.552l14.759,23.984c3.326,5.406,4.12,11.972,2.177,18.013l-8.635,26.854
			c-5.991,18.632,1.578,38.622,18.407,48.614l23.921,14.202c5.482,3.254,9.241,8.726,10.312,15.011l4.707,27.616
			c3.31,19.415,19.36,33.657,39.031,34.635l27.4,1.362c6.41,0.318,12.313,3.431,16.196,8.54l16.706,21.98
			c8.054,10.598,20.579,16.418,33.336,16.418c5.924,0,11.899-1.255,17.499-3.87l24.767-11.566c5.835-2.724,12.528-2.724,18.361,0
			l24.766,11.566c17.662,8.247,39.042,2.97,50.837-12.552l16.7-21.975c3.883-5.111,9.788-8.224,16.199-8.542l27.404-1.362
			c19.671-0.978,35.721-15.22,39.031-34.636l4.707-27.616c1.071-6.285,4.83-11.756,10.312-15.01l23.921-14.202
			c16.83-9.992,24.398-29.982,18.407-48.614l-8.635-26.855c-1.943-6.042-1.15-12.607,2.177-18.013L505.765,254.742z
			 M473.975,268.248c-6.392,10.387-7.915,23.002-4.182,34.613l8.635,26.855c3.118,9.696-0.821,20.1-9.579,25.299l-23.921,14.202
			c-10.535,6.255-17.758,16.768-19.816,28.844l-4.707,27.616c-1.723,10.104-10.075,17.517-20.312,18.024l-27.404,1.362
			c-12.32,0.612-23.664,6.595-31.127,16.416l-16.7,21.975c-6.138,8.076-17.264,10.822-26.456,6.532l-24.766-11.566
			c-11.211-5.235-24.071-5.235-35.282,0l-24.767,11.566c-9.191,4.29-20.317,1.545-26.455-6.53l-16.706-21.98
			c-7.463-9.818-18.807-15.801-31.124-16.413l-27.4-1.362c-10.237-0.508-18.589-7.92-20.311-18.023l-4.707-27.616
			c-2.059-12.077-9.281-22.59-19.816-28.844l-23.922-14.203c-8.757-5.2-12.696-15.603-9.579-25.299l8.635-26.855
			c3.733-11.61,2.209-24.225-4.183-34.613l-14.759-23.985c-5.329-8.66-3.991-19.692,3.252-26.828l19.961-19.663
			c8.702-8.573,13.195-20.478,12.329-32.663l-2-28.085c-0.726-10.189,5.599-19.365,15.379-22.314l26.426-7.967
			c11.771-3.549,21.327-12.054,26.217-23.332l11.069-25.528c3.469-8,11.469-13.06,19.969-13.06c1.365,0,2.742,0.13,4.116,0.4
			l26.82,5.264c12.129,2.38,24.603-0.708,34.22-8.473l21.348-17.236c7.897-6.377,19.361-6.377,27.26,0l21.348,17.235
			c9.617,7.764,22.09,10.852,34.221,8.473l26.817-5.263c9.934-1.949,20.06,3.375,24.086,12.661l11.063,25.522
			c4.89,11.282,14.447,19.788,26.22,23.336l26.431,7.968c9.781,2.948,16.105,12.125,15.38,22.315l-2,28.084
			c-0.868,12.186,3.625,24.09,12.329,32.664l19.96,19.663c7.244,7.136,8.581,18.167,3.252,26.828L473.975,268.248z"/>
	</g>
</g>
<g>
	<g>
		<path d="M144.14,321.87c-5.522,0-9.998,4.521-9.998,10.043s4.476,9.998,9.998,9.998s9.998-4.476,9.998-9.998v-0.089
			C154.137,326.302,149.661,321.87,144.14,321.87z"/>
	</g>
</g>
<g>
	<g>
		<path d="M416.635,265.259c-0.001-13.098-8.241-24.303-19.808-28.716c1.779-3.885,2.778-8.198,2.778-12.744
			c0-16.944-13.785-30.728-30.728-30.728h-64.379c-1.794,0-3.549,0.163-5.26,0.46l3.897-20.851
			c5.096-27.265-11.074-53.909-37.611-61.977l-8.996-2.735c-5.091-1.547-10.499,1.161-12.311,6.164l-17.457,48.247
			c-4.649,12.849-13.819,23.525-25.82,30.06l-13.239,7.21c-3.66-4.029-8.923-6.579-14.783-6.579h-57.556
			c-11.026,0-19.996,8.97-19.996,19.996V358.91c0,11.026,8.97,19.996,19.996,19.996h57.556c10.261,0,18.731-7.771,19.859-17.736
			l2.871,2.08c14.142,10.242,30.847,15.656,48.308,15.656h114.787c16.944,0,30.728-13.784,30.728-30.728
			c0-5.646-1.538-10.937-4.205-15.488c8.607-5.451,14.337-15.052,14.337-25.972c0-4.545-1-8.858-2.778-12.743
			C408.393,289.561,416.635,278.357,416.635,265.259z M172.918,358.91h-57.556V213.067h18.78v80.518
			c0,5.522,4.476,9.998,9.998,9.998s9.998-4.476,9.998-9.998v-80.518h18.392c-0.1,1.222,0.02,2.469,0.387,3.683V358.91z
			 M283.477,169.006l-9.111,48.747c-0.003,0.018-0.004,0.035-0.007,0.053c-0.24,1.208-0.403,2.442-0.496,3.695l-4.276,14.455
			c-5.432,18.362-22.6,31.187-41.75,31.187c-5.522,0-9.998,4.476-9.998,9.998s4.476,9.998,9.998,9.998
			c17.706,0,34.242-7.52,46.006-19.84c0.473,7.178,3.416,13.691,7.992,18.689c-5.007,5.469-8.068,12.747-8.068,20.73
			c0,8.221,3.251,15.692,8.528,21.212c-4.752,5.412-7.643,12.497-7.643,20.248c0,3.773,0.688,7.389,1.938,10.732h-32.634
			c-13.22-0.001-25.87-4.1-36.578-11.856l-14.464-10.476V219.578l17.589-9.577c16.296-8.873,28.747-23.37,35.06-40.818
			l14.227-39.323C276.513,134.989,286.692,151.802,283.477,169.006z M304.497,213.067h64.379c5.918,0,10.732,4.814,10.732,10.732
			s-4.814,10.732-10.732,10.732h-64.379c-5.917,0-10.732-4.814-10.732-10.732S298.579,213.067,304.497,213.067z M358.745,358.91
			h-53.363c-5.918,0-10.732-4.814-10.732-10.732s4.814-10.732,10.732-10.732h53.363c5.918,0,10.732,4.814,10.732,10.732
			S364.663,358.91,358.745,358.91z M368.877,317.45h-10.131h-53.363h-0.885c-5.917,0-10.732-4.814-10.732-10.732
			s4.814-10.732,10.732-10.732h64.379c5.917,0,10.732,4.815,10.732,10.732C379.609,312.635,374.795,317.45,368.877,317.45z
			 M385.906,275.99h-17.03h-64.379c-5.917,0-10.732-4.814-10.732-10.732s4.814-10.732,10.732-10.732h64.379h17.03
			c5.917,0,10.732,4.814,10.732,10.732C396.638,271.175,391.824,275.99,385.906,275.99z"/>
	</g>
</g>
<g>
</g>
<g>
</g>
<g>
</g>
<g>
</g>
<g>
</g>
<g>
</g>
<g>
</g>
<g>
</g>
<g>
</g>
<g>
</g>
<g>
</g>
<g>
</g>
<g>
</g>
<g>
</g>
<g>
</g>
</svg>
