<?xml version="1.0" encoding="iso-8859-1"?>
<!-- Generator: Adobe Illustrator 19.0.0, SVG Export Plug-In . SVG Version: 6.00 Build 0)  -->
<svg version="1.1" id="Capa_1" xmlns="http://www.w3.org/2000/svg" xmlns:xlink="http://www.w3.org/1999/xlink" x="0px" y="0px"
	 viewBox="0 0 512.001 512.001" style="enable-background:new 0 0 512.001 512.001;" xml:space="preserve">
<g>
	<g>
		<path d="M502,492.001h-8v-292c0-5.523-4.477-10-10-10h-80c-5.523,0-10,4.477-10,10v107c0,5.523,4.477,10,10,10s10-4.477,10-10v-97
			h60v282h-60v-87.015c0-5.523-4.477-10-10-10s-10,4.477-10,10v87.015h-24v-226c0-5.523-4.477-10-10-10h-80c-5.523,0-10,4.477-10,10
			v226h-28v-164c0-5.523-4.477-10-10-10h-80c-5.523,0-10,4.477-10,10v164h-24v-100c0-5.523-4.477-10-10-10H28
			c-5.523,0-10,4.477-10,10v100h-8c-5.523,0-10,4.477-10,10s4.477,10,10,10h492c5.523,0,10-4.477,10-10S507.523,492.001,502,492.001
			z M98,492.001H38v-90h60V492.001z M222,492.001h-60v-154h60V492.001z M350,492.001h-60v-216h60V492.001z"/>
	</g>
</g>
<g>
	<g>
		<path d="M411.07,346.821c-1.86-1.86-4.44-2.92-7.07-2.92s-5.21,1.06-7.07,2.92c-1.86,1.86-2.93,4.44-2.93,7.08
			c0,2.63,1.07,5.2,2.93,7.07c1.86,1.861,4.44,2.93,7.07,2.93s5.21-1.07,7.07-2.93c1.86-1.87,2.93-4.44,2.93-7.07
			C414,351.261,412.93,348.681,411.07,346.821z"/>
	</g>
</g>
<g>
	<g>
		<path d="M436.001,0c-41.907,0-76,34.093-76,76s34.094,76,76,76c41.907,0,76-34.093,76-76S477.908,0,436.001,0z M436.001,105.093
			c-6.254,0-11.341-4.203-11.341-9.368c0-5.523-4.477-10-10-10s-10,4.477-10,10c0,12.917,8.95,23.905,21.341,27.826v7.537
			c-26.121-4.731-46-27.624-46-55.088s19.879-50.357,46-55.088v8.251c-12.391,3.921-21.341,14.909-21.341,27.826
			c0,16.194,14.06,29.368,31.341,29.368c6.253,0,11.341,4.202,11.341,9.368C447.342,100.891,442.255,105.093,436.001,105.093z
			 M446.001,131.088v-7.537c12.391-3.921,21.341-14.909,21.341-27.826c0-16.193-14.06-29.368-31.341-29.368
			c-6.253,0-11.341-4.203-11.341-9.368c0-5.165,5.087-9.368,11.341-9.368c6.254,0,11.341,4.203,11.341,9.368c0,5.523,4.477,10,10,10
			s10-4.477,10-10c0-12.917-8.95-23.905-21.341-27.826v-8.251c26.122,4.731,46,27.624,46,55.088S472.122,126.357,446.001,131.088z"
			/>
	</g>
</g>
<g>
	<g>
		<path d="M355.998,129.367h-39.15c-5.523,0-10,4.477-10,10s4.477,10,10,10h15.007l-106.919,106.92l-54.321-54.321
			c-3.905-3.904-10.237-3.904-14.143,0L47.718,310.719c-3.905,3.905-3.905,10.237,0,14.142c1.952,1.953,4.512,2.93,7.071,2.93
			s5.119-0.977,7.071-2.929l101.683-101.683l54.321,54.321c3.905,3.905,10.237,3.905,14.143,0l113.991-113.991v15.008
			c0,5.523,4.477,10,10,10s10-4.477,10-10v-39.15C365.998,133.844,361.521,129.367,355.998,129.367z"/>
	</g>
</g>
<g>
	<g>
		<path d="M35.86,336.722c-1.86-1.86-4.44-2.93-7.07-2.93s-5.21,1.07-7.07,2.93c-1.86,1.86-2.93,4.44-2.93,7.07s1.07,5.21,2.93,7.07
			c1.86,1.859,4.44,2.93,7.07,2.93s5.21-1.07,7.07-2.93c1.86-1.86,2.93-4.44,2.93-7.07S37.72,338.582,35.86,336.722z"/>
	</g>
</g>
<g>
</g>
<g>
</g>
<g>
</g>
<g>
</g>
<g>
</g>
<g>
</g>
<g>
</g>
<g>
</g>
<g>
</g>
<g>
</g>
<g>
</g>
<g>
</g>
<g>
</g>
<g>
</g>
<g>
</g>
</svg>
