<?xml version="1.0" encoding="UTF-8"?>
<svg width="12px" height="16px" viewBox="0 0 12 16" version="1.1" xmlns="http://www.w3.org/2000/svg" xmlns:xlink="http://www.w3.org/1999/xlink">
    <!-- Generator: Sketch 51.3 (57544) - http://www.bohemiancoding.com/sketch -->
    <title>android</title>
    <desc>Created with Sketch.</desc>
    <defs></defs>
    <g id="Page-1" stroke="none" stroke-width="1" fill="none" fill-rule="evenodd">
        <g id="002_Footer_Tablet" transform="translate(-495.000000, -412.000000)" fill="#FFFFFF">
            <g id="Group" transform="translate(0.000000, 379.000000)">
                <g id="Group-3" transform="translate(261.000000, 28.000000)">
                    <g id="android" transform="translate(234.000000, 5.000000)">
                        <path d="M2.4,11.52 C2.4,11.904 2.64,12.16 3,12.16 L3.6,12.16 L3.6,14.4 C3.6,14.912 4.02,15.36 4.5,15.36 C4.98,15.36 5.4,14.912 5.4,14.4 L5.4,12.16 L6.6,12.16 L6.6,14.4 C6.6,14.912 7.02,15.36 7.5,15.36 C7.98,15.36 8.4,14.912 8.4,14.4 L8.4,12.16 L9,12.16 C9.36,12.16 9.6,11.904 9.6,11.52 L9.6,5.12 L2.4,5.12 L2.4,11.52 L2.4,11.52 Z M0.9,5.12 C0.42,5.12 0,5.568 0,6.08 L0,10.56 C0,11.072 0.42,11.52 0.9,11.52 C1.38,11.52 1.8,11.072 1.8,10.56 L1.8,6.08 C1.8,5.568 1.38,5.12 0.9,5.12 L0.9,5.12 Z M11.1,5.12 C10.62,5.12 10.2,5.568 10.2,6.08 L10.2,10.56 C10.2,11.072 10.62,11.52 11.1,11.52 C11.58,11.52 12,11.072 12,10.56 L12,6.08 C12,5.568 11.58,5.12 11.1,5.12 L11.1,5.12 Z M8.1,1.408 L8.88,0.576 C9,0.448 9,0.256 8.88,0.128 C8.76,-3.75498244e-14 8.58,-3.75498244e-14 8.46,0.128 L7.56,1.088 C7.14,0.768 6.6,0.64 6,0.64 C5.4,0.64 4.86,0.768 4.38,1.024 L3.54,0.064 C3.42,-3.76573772e-14 3.18,-3.76573772e-14 3.06,0.064 C3,0.192 3,0.448 3.06,0.576 L3.84,1.408 C3,2.112 2.4,3.2 2.4,4.48 L9.6,4.48 C9.6,3.2 9,2.048 8.1,1.408 L8.1,1.408 Z M4.8,3.2 L4.2,3.2 L4.2,2.56 L4.8,2.56 L4.8,3.2 L4.8,3.2 Z M7.8,3.2 L7.2,3.2 L7.2,2.56 L7.8,2.56 L7.8,3.2 L7.8,3.2 Z" id="Shape"></path>
                    </g>
                </g>
            </g>
        </g>
    </g>
</svg>