<svg width="33" height="33" viewBox="0 0 33 33" fill="none" xmlns="http://www.w3.org/2000/svg">
<path d="M5 11H28V26H5V11Z" stroke="black" stroke-width="1.5" stroke-linecap="round" stroke-linejoin="round"/>
<path d="M21 11C21 9.93913 20.5259 8.92172 19.682 8.17157C18.8381 7.42143 17.6935 7 16.5 7C15.3065 7 14.1619 7.42143 13.318 8.17157C12.4741 8.92172 12 9.93913 12 11" stroke="black" stroke-width="1.5" stroke-linecap="round" stroke-linejoin="round"/>
<path d="M5 17H15" stroke="black" stroke-width="1.5" stroke-linecap="round" stroke-linejoin="round"/>
<path d="M18 17H28" stroke="black" stroke-width="1.5" stroke-linecap="round" stroke-linejoin="round"/>
<path d="M16.5 20C16.1022 20 15.7206 19.8244 15.4393 19.5118C15.158 19.1993 15 18.7754 15 18.3333V16.6667C15 16.2246 15.158 15.8007 15.4393 15.4882C15.7206 15.1756 16.1022 15 16.5 15C16.8978 15 17.2794 15.1756 17.5607 15.4882C17.842 15.8007 18 16.2246 18 16.6667V18.3333C18 18.7754 17.842 19.1993 17.5607 19.5118C17.2794 19.8244 16.8978 20 16.5 20Z" stroke="black" stroke-width="1.5" stroke-linecap="round" stroke-linejoin="round"/>
</svg>
