<?xml version="1.0" encoding="UTF-8"?>
<svg width="60px" height="23px" viewBox="0 0 60 23" version="1.1" xmlns="http://www.w3.org/2000/svg" xmlns:xlink="http://www.w3.org/1999/xlink">
    <!-- Generator: Sketch 63.1 (92452) - https://sketch.com -->
    <title>eA_Icon</title>
    <desc>Created with Sketch.</desc>
    <defs>
        <polygon id="path-1" points="0.0168224299 0.159132554 59.9663551 0.159132554 59.9663551 22.8947368 0.0168224299 22.8947368"></polygon>
    </defs>
    <g id="Homepage" stroke="none" stroke-width="1" fill="none" fill-rule="evenodd">
        <g id="Group-18" transform="translate(-295.000000, -429.000000)">
            <g id="Group-13" transform="translate(20.000000, 428.000000)">
                <g id="eA_Icon" transform="translate(275.000000, 1.000000)">
                    <g id="Group-4">
                        <mask id="mask-2" fill="white">
                            <use xlink:href="#path-1"></use>
                        </mask>
                        <g id="Clip-2"></g>
                        <path d="M18.7071028,22.8947368 L11.2760748,22.8947368 C5.04869159,22.8947368 0,17.8053216 0,11.527076 C0,5.24883041 5.04869159,0.159132554 11.2760748,0.159132554 L18.7071028,0.159132554 C24.9347664,0.159132554 29.9831776,5.24883041 29.9831776,11.527076 C29.9831776,17.8053216 24.9347664,22.8947368 18.7071028,22.8947368" id="Fill-1" fill="#BAD5E0" mask="url(#mask-2)"></path>
                        <path d="M48.6902804,22.8947368 L41.2595327,22.8947368 C35.0318692,22.8947368 29.9831776,17.8053216 29.9831776,11.527076 C29.9831776,5.24883041 35.0318692,0.159132554 41.2595327,0.159132554 L48.6902804,0.159132554 C54.9179439,0.159132554 59.9666355,5.24883041 59.9666355,11.527076 C59.9666355,17.8053216 54.9179439,22.8947368 48.6902804,22.8947368" id="Fill-3" fill="#BAD5E0" mask="url(#mask-2)"></path>
                    </g>
                    <path d="M37.8947368,11.4475075 C37.8947368,15.5896866 34.5367769,18.9473684 30.3945978,18.9473684 C26.2524187,18.9473684 22.8947368,15.5896866 22.8947368,11.4475075 C22.8947368,7.30532834 26.2524187,3.94736842 30.3945978,3.94736842 C34.5367769,3.94736842 37.8947368,7.30532834 37.8947368,11.4475075" id="Fill-5" fill="#FFFFFE"></path>
                    <polyline id="Fill-6" fill="#FFFFFE" points="10.263999 18.1578947 10.2623168 18.1578947 10.263999 18.1578947"></polyline>
                    <path d="M13.0254581,7.10526316 C13.6781748,7.10526316 14.2105263,6.57646839 14.2105263,5.92134238 C14.2105263,5.26650612 13.6781748,4.73684211 13.0254581,4.73684211 C12.3727414,4.73684211 11.8421053,5.26650612 11.8421053,5.92134238 C11.8421053,6.57646839 12.3727414,7.10526316 13.0254581,7.10526316" id="Fill-7" fill="#1A334D"></path>
                    <path d="M15.7052358,14.6323912 C15.466218,14.7049289 15.2947046,14.901612 15.2396581,15.1358541 L15.2286488,15.1602245 C14.8699773,16.1811991 14.0567375,17.0229798 12.9639193,17.3552768 C12.4899399,17.5000654 12.0092969,17.5327504 11.5489342,17.472828 L11.5503828,17.4736842 L11.5431398,17.4736842 C10.8469463,17.3696123 10.1464069,17.0206862 9.65823126,16.574852 C9.64722196,16.5633836 9.63331547,16.5513418 9.62172673,16.5392999 C9.57044656,16.4905592 9.52119441,16.4398115 9.47368058,16.3890639 C9.42964337,16.3403232 9.38589587,16.2927293 9.34388669,16.2414082 C9.32911105,16.2244923 9.31665315,16.207003 9.30187751,16.1895137 C9.02780381,15.8414476 8.79921592,15.4426339 8.667394,14.9873383 L8.66536597,14.9853313 C8.51963757,14.5002179 8.46980598,13.9772587 8.54513279,13.4408241 C8.70940318,12.2836623 9.40414814,11.339526 10.3419669,10.8300422 L10.3642752,10.8142731 C10.5821436,10.725393 10.7478625,10.5238358 10.7846568,10.2692373 C10.8376753,9.88905971 10.5821436,9.53554618 10.208117,9.48078456 C10.0676035,9.46042814 9.93085637,9.48451179 9.81178207,9.54443419 L9.82105306,9.54443419 C8.43359117,10.2391327 7.39524007,11.6012923 7.15564288,13.283707 C7.04583956,14.0604046 7.11884863,14.8201863 7.34222159,15.5197589 L7.33816553,15.5203323 C8.14445211,18.0683248 10.7936381,19.507036 13.3147684,18.7420935 C14.9067716,18.2564066 16.0731782,17.0089311 16.5445502,15.5031297 L16.5465783,15.5111576 C16.5871389,15.3824248 16.5909052,15.2405033 16.5503446,15.1017356 C16.4445974,14.732453 16.066225,14.5225813 15.7052358,14.6323912" id="Fill-8" fill="#1A334D"></path>
                    <path d="M21.248053,15.091096 C21.1062148,14.8484193 20.7887132,14.7632154 20.5394305,14.901004 L19.7634419,15.3309606 L17.79732,12.3977509 C17.7219951,12.2878012 17.5821466,12.0611531 17.1975633,12.038657 L13.5029482,12.038657 L13.5029482,10.8778584 L16.0642789,10.8778584 C16.4320918,10.8778584 16.7302647,10.5527898 16.7302647,10.1506721 C16.7302647,9.74911682 16.4320918,9.42461064 16.0642789,9.42461064 L13.5029482,9.42461064 L13.5029482,7.91540381 C13.5029482,7.4671691 13.1314401,7.10526316 12.6726688,7.10526316 C12.2153188,7.10526316 11.8421053,7.4671691 11.8421053,7.91540381 L11.8421053,12.691325 C11.8421053,13.1108771 12.1834834,13.4727831 12.6010391,13.5141197 C12.663573,13.5203061 12.7087679,13.5191813 12.7713018,13.5191813 L17.0597045,13.5191813 L18.925488,16.3027919 C19.018436,16.4400181 19.1568633,16.5271905 19.3069446,16.561497 C19.3447492,16.5730263 19.3842592,16.5738699 19.4240535,16.5775255 C19.4291699,16.5775255 19.4342863,16.5780879 19.4402555,16.5786503 C19.5098955,16.5808999 19.5775457,16.5704955 19.646333,16.543219 C19.6588398,16.5387197 19.6696411,16.5367513 19.6824321,16.5325333 C19.6929492,16.5271905 19.7051717,16.5271905 19.715973,16.5221289 L21.0527767,15.7820073 C21.301491,15.6444999 21.3898912,15.3351786 21.248053,15.091096" id="Fill-9" fill="#1A334D"></path>
                    <path d="M41.8075183,12.5761195 L41.8075183,6.24864925 C41.8075183,6.19853409 41.8437878,6.1573475 41.8897476,6.1573475 L48.9556531,6.1573475 C49.0016129,6.1573475 49.0359443,6.19853409 49.0359443,6.24864925 L49.0359443,12.5761195 C49.0359443,12.6262346 49.0016129,12.6677092 48.9556531,12.6677092 L41.8897476,12.6677092 C41.8437878,12.6677092 41.8075183,12.6262346 41.8075183,12.5761195 L41.8075183,12.5761195 Z M40.507354,14.2428804 C40.507354,14.3030761 40.5480533,14.3537673 40.5981662,14.3537673 L50.1913075,14.3537673 C50.2408666,14.3537673 50.2812891,14.3030761 50.2812891,14.2428804 L50.2812891,4.84830512 C50.2812891,4.78638122 50.2408666,4.73684211 50.1913075,4.73684211 L40.5981662,4.73684211 C40.5480533,4.73684211 40.507354,4.78638122 40.507354,4.84830512 L40.507354,14.2428804 Z M45.886313,17.0706423 L44.8979002,17.0706423 C44.8380971,17.0706423 44.7904761,17.1201814 44.7904761,17.1815293 L44.7904761,18.21033 C44.7904761,18.2716779 44.8380971,18.3200649 44.8979002,18.3200649 L45.886313,18.3200649 C45.946393,18.3200649 45.9945677,18.2716779 45.9945677,18.21033 L45.9945677,17.1815293 C45.9945677,17.1201814 45.946393,17.0706423 45.886313,17.0706423 L45.886313,17.0706423 Z M49.6342525,17.0706423 L48.6444554,17.0706423 C48.5865903,17.0706423 48.5384156,17.1201814 48.5384156,17.1815293 L48.5384156,18.21033 C48.5384156,18.2716779 48.5865903,18.3200649 48.6444554,18.3200649 L49.6342525,18.3200649 C49.6929481,18.3200649 49.7402923,18.2716779 49.7402923,18.21033 L49.7402923,17.1815293 C49.7402923,17.1201814 49.6929481,17.0706423 49.6342525,17.0706423 L49.6342525,17.0706423 Z M44.0133123,17.0706423 L43.0240689,17.0706423 C42.9645427,17.0706423 42.9185828,17.1201814 42.9185828,17.1815293 L42.9185828,18.21033 C42.9185828,18.2716779 42.9645427,18.3200649 43.0240689,18.3200649 L44.0133123,18.3200649 C44.0731154,18.3200649 44.1210133,18.2716779 44.1210133,18.21033 L44.1210133,17.1815293 C44.1210133,17.1201814 44.0731154,17.0706423 44.0133123,17.0706423 L44.0133123,17.0706423 Z M47.7601443,17.0706423 L46.7711778,17.0706423 C46.7130359,17.0706423 46.6654149,17.1201814 46.6654149,17.1815293 L46.6654149,18.21033 C46.6654149,18.2716779 46.7130359,18.3200649 46.7711778,18.3200649 L47.7601443,18.3200649 C47.8196706,18.3200649 47.8670147,18.2716779 47.8670147,18.21033 L47.8670147,17.1815293 C47.8670147,17.1201814 47.8196706,17.0706423 47.7601443,17.0706423 L47.7601443,17.0706423 Z M47.7618055,16.700827 L48.7504952,16.700827 C48.8091908,16.700827 48.8562581,16.6507119 48.8562581,16.589652 L48.8562581,15.5605633 C48.8562581,15.4992154 48.8091908,15.4496763 48.7504952,15.4496763 L47.7618055,15.4496763 C47.7017255,15.4496763 47.6563194,15.4992154 47.6563194,15.5605633 L47.6563194,16.589652 C47.6563194,16.6507119 47.7017255,16.700827 47.7618055,16.700827 L47.7618055,16.700827 Z M45.8879742,16.700827 L46.8766639,16.700827 C46.9361901,16.700827 46.9827037,16.6507119 46.9827037,16.589652 L46.9827037,15.5605633 C46.9827037,15.4992154 46.9361901,15.4496763 46.8766639,15.4496763 L45.8879742,15.4496763 C45.8284479,15.4496763 45.7822113,15.4992154 45.7822113,15.5605633 L45.7822113,16.589652 C45.7822113,16.6507119 45.8284479,16.700827 45.8879742,16.700827 L45.8879742,16.700827 Z M42.1419728,16.700827 L43.1287244,16.700827 C43.189635,16.700827 43.2378097,16.6507119 43.2378097,16.589652 L43.2378097,15.5605633 C43.2378097,15.4992154 43.189635,15.4496763 43.1287244,15.4496763 L42.1419728,15.4496763 C42.0813391,15.4496763 42.0337181,15.4992154 42.0337181,15.5605633 L42.0337181,16.589652 C42.0337181,16.6507119 42.0813391,16.700827 42.1419728,16.700827 L42.1419728,16.700827 Z M42.1397579,17.0706423 L41.1516219,17.0706423 C41.0909882,17.0706423 41.0450284,17.1201814 41.0450284,17.1815293 L41.0450284,18.21033 C41.0450284,18.2716779 41.0909882,18.3200649 41.1516219,18.3200649 L42.1397579,18.3200649 C42.1992841,18.3200649 42.2480126,18.2716779 42.2480126,18.21033 L42.2480126,17.1815293 C42.2480126,17.1201814 42.1992841,17.0706423 42.1397579,17.0706423 L42.1397579,17.0706423 Z M44.0144198,16.700827 L45.0042169,16.700827 C45.0615282,16.700827 45.109703,16.6507119 45.109703,16.589652 L45.109703,15.5605633 C45.109703,15.4992154 45.0615282,15.4496763 45.0042169,15.4496763 L44.0144198,15.4496763 C43.9551704,15.4496763 43.9067188,15.4992154 43.9067188,15.5605633 L43.9067188,16.589652 C43.9067188,16.6507119 43.9551704,16.700827 44.0144198,16.700827 L44.0144198,16.700827 Z M50.5263158,18.8206404 C50.5263158,18.8909169 50.4717731,18.9473684 50.4044946,18.9473684 L40.3860865,18.9473684 C40.3196386,18.9473684 40.2631579,18.8909169 40.2631579,18.8206404 L40.2631579,15.016209 C40.2631579,14.9456446 40.3196386,14.889193 40.3860865,14.889193 L50.4044946,14.889193 C50.4717731,14.889193 50.5263158,14.9456446 50.5263158,15.016209 L50.5263158,18.8206404 L50.5263158,18.8206404 Z" id="Fill-10" fill="#1A334D"></path>
                    <polyline id="Fill-11" fill="#1A334D" points="57.4318504 22.8947368 57.4318504 21.582919 56.8421053 21.582919 56.8421053 21.3157895 58.4210526 21.3157895 58.4210526 21.582919 57.8331585 21.582919 57.8331585 22.8947368 57.4318504 22.8947368"></polyline>
                    <polyline id="Fill-12" fill="#1A334D" points="58.4210526 22.8947368 58.4210526 21.3157895 58.9149876 21.3157895 59.2115921 22.3928393 59.504847 21.3157895 60 21.3157895 60 22.8947368 59.6933462 22.8947368 59.6933462 21.652055 59.3687256 22.8947368 59.0508044 22.8947368 58.7277064 21.652055 58.7277064 22.8947368 58.4210526 22.8947368"></polyline>
                    <path d="M33.1578947,10.0809799 L26.8421053,7.10526316 C26.8421053,8.33008798 26.9945198,9.12025456 27.9225422,9.55757778 L31.0955901,11.0526316 L33.1578947,10.0809799" id="Fill-13" fill="#1A334D"></path>
                    <path d="M33.9459048,10.2631579 L31.8945027,11.2741944 L31.8983081,11.2761355 L27.9471342,13.2233376 C27.0470113,13.6850424 26.8421053,14.690533 26.8421053,15.7894737 L32.546982,12.9784815 C33.8103741,12.3273806 33.9473684,11.5304198 33.9473684,10.2639898 L33.9459048,10.2631579" id="Fill-14" fill="#1A334D"></path>
                </g>
            </g>
        </g>
    </g>
</svg>