<?xml version="1.0" encoding="utf-8"?>
<!-- Generator: Adobe Illustrator 19.0.0, SVG Export Plug-In . SVG Version: 6.00 Build 0)  -->
<svg version="1.1" id="Layer_1" xmlns="http://www.w3.org/2000/svg" xmlns:xlink="http://www.w3.org/1999/xlink" x="0px" y="0px"
	 viewBox="0 0 100 100" style="enable-background:new 0 0 100 100;" xml:space="preserve">
<style type="text/css">
	.st0{fill:#FFFFFF;}
</style>
<path class="st0" d="M79.1,2.1H20.5C10.3,2.1,2,10.4,2,20.6v58.7c0,10.2,8.3,18.5,18.5,18.5h58.7c10.2,0,18.5-8.3,18.5-18.5V20.6
	C97.6,10.4,89.3,2.1,79.1,2.1 M85,12.8l2.1,0v15.9l-16,0.1L71,12.9L85,12.8z M49.8,34c13.3,0,16,12.4,16,16c0,8.8-7.2,16-16,16
	c-8.8,0-16-7.2-16-16C33.8,46.4,36.6,34,49.8,34 M87.2,78.1c0,5.1-4.1,9.2-9.2,9.2H21.5c-5.1,0-9.2-4.1-9.2-9.2V39.3h13.3
	c-1.2,3-1.9,7.2-1.9,10.6c0,14.4,11.7,26.1,26.1,26.1c14.4,0,26.1-11.7,26.1-26.1c0-3.5-0.7-7.6-1.9-10.6h13.1L87.2,78.1L87.2,78.1z
	"/>
</svg>
