<?xml version="1.0" encoding="utf-8"?>
<!-- Generator: Adobe Illustrator 19.0.0, SVG Export Plug-In . SVG Version: 6.00 Build 0)  -->
<svg version="1.1" id="Layer_1" xmlns="http://www.w3.org/2000/svg" xmlns:xlink="http://www.w3.org/1999/xlink" x="0px" y="0px"
	 viewBox="0 0 100 100" style="enable-background:new 0 0 100 100;" xml:space="preserve">
<style type="text/css">
	.st0{fill:#FFFFFF;}
</style>
<path class="st0" d="M98.7,20.1c-3.6,1.5-7.4,2.6-11.5,3.1c4.1-2.4,7.3-6.2,8.8-10.7c-3.9,2.2-8.1,3.8-12.7,4.7
	c-3.6-3.8-8.8-6.1-14.6-6.1c-11,0-20,8.7-20,19.4c0,1.5,0.2,3,0.5,4.4C32.6,34,17.8,26.3,8,14.6c-1.7,2.9-2.7,6.2-2.7,9.8
	c0,6.7,3.5,12.7,8.9,16.2c-3.3-0.1-6.4-1-9.1-2.4v0.2c0,9.4,6.9,17.3,16.1,19c-1.7,0.4-3.4,0.7-5.3,0.7c-1.3,0-2.5-0.1-3.8-0.3
	c2.5,7.7,9.9,13.3,18.7,13.5C24,76.4,15.3,79.5,6,79.5c-1.6,0-3.2-0.1-4.8-0.3c8.9,5.5,19.4,8.7,30.7,8.7
	c36.8,0,56.9-29.6,56.9-55.2l-0.1-2.5C92.6,27.4,96,24,98.7,20.1"/>
</svg>
